# WaveFront *.obj file (generated by Autodesk ATF)

mtllib 53ef22d9-e454-466a-938b-4e5235837372.mtl

g Body1

v 0.000000 0.000000 0.000000
v 0.000000 0.000000 30.019349
v 0.000000 30.000000 30.019349
v 0.000000 30.000000 0.000000
v 27.889296 0.000000 0.000000
v 27.889296 30.000000 0.000000
v 27.889296 0.000000 30.019349
v 27.889296 30.000000 30.019349
vt 0.000000 0.000000 0.000000
vt 3.001935 0.000000 0.000000
vt 0.000000 3.000000 0.000000
vt 3.001935 3.000000 0.000000
vt -0.000000 0.000000 0.000000
vt 2.788930 0.000000 0.000000
vt -0.000000 3.000000 0.000000
vt 2.788930 3.000000 0.000000
vt -0.000000 0.000000 0.000000
vt 3.001935 0.000000 0.000000
vt -0.000000 3.000000 0.000000
vt 3.001935 3.000000 0.000000
vt 0.000000 0.000000 0.000000
vt 2.788930 0.000000 0.000000
vt 0.000000 3.000000 0.000000
vt 2.788930 3.000000 0.000000
vt 1.500967 1.394465 0.000000
vt -1.500967 1.394465 0.000000
vt 1.500967 -1.394465 0.000000
vt -1.500967 -1.394465 0.000000
vt -1.394465 -1.500967 0.000000
vt 1.394465 -1.500967 0.000000
vt -1.394465 1.500967 0.000000
vt 1.394465 1.500967 0.000000
vn -0.100000 0.000000 0.000000
vn -0.100000 0.000000 0.000000
vn -0.100000 0.000000 0.000000
vn -0.100000 0.000000 0.000000
vn 0.000000 0.000000 -0.100000
vn 0.000000 0.000000 -0.100000
vn 0.000000 0.000000 -0.100000
vn 0.000000 0.000000 -0.100000
vn 0.100000 0.000000 0.000000
vn 0.100000 0.000000 0.000000
vn 0.100000 0.000000 0.000000
vn 0.100000 0.000000 0.000000
vn 0.000000 -0.000000 0.100000
vn 0.000000 -0.000000 0.100000
vn 0.000000 -0.000000 0.100000
vn 0.000000 -0.000000 0.100000
vn 0.000000 0.100000 0.000000
vn 0.000000 0.100000 0.000000
vn 0.000000 0.100000 0.000000
vn 0.000000 0.100000 0.000000
vn 0.000000 -0.100000 0.000000
vn 0.000000 -0.100000 0.000000
vn 0.000000 -0.100000 0.000000
vn 0.000000 -0.100000 0.000000
usemtl Steel_-_Satin
f 1/1/1 2/2/2 4/3/3
f 4/3/3 2/2/2 3/4/4
f 5/5/5 1/6/6 6/7/7
f 6/7/7 1/6/6 4/8/8
f 7/9/9 5/10/10 8/11/11
f 8/11/11 5/10/10 6/12/12
f 2/13/13 7/14/14 3/15/15
f 3/15/15 7/14/14 8/16/16
f 8/17/17 6/18/18 3/19/19
f 3/19/19 6/18/18 4/20/20
f 7/21/21 2/22/22 5/23/23
f 5/23/23 2/22/22 1/24/24

# 8 vertices
# 24 texture params
# 24 normals
# 12 facets

# 1 groups
